<?xml version="1.0" standalone="no"?>
<!DOCTYPE svg PUBLIC "-//W3C//DTD SVG 20010904//EN"
 "http://www.w3.org/TR/2001/REC-SVG-20010904/DTD/svg10.dtd">
<svg version="1.0" xmlns="http://www.w3.org/2000/svg"
 width="100.000000pt" height="100.000000pt" viewBox="0 0 100.000000 100.000000"
 preserveAspectRatio="xMidYMid meet">

<g transform="translate(0.000000,100.000000) scale(0.100000,-0.100000)"
fill="#000000" stroke="none">
<path d="M529 642 c-40 -114 -94 -265 -120 -337 -41 -115 -45 -131 -31 -142 9
-7 17 -11 19 -10 1 2 52 143 112 313 60 170 114 321 120 336 9 23 7 29 -8 38
-17 9 -25 -9 -92 -198z"/>
<path d="M107 625 c-48 -57 -90 -110 -93 -118 -5 -13 165 -227 185 -235 5 -1
13 3 18 10 8 10 -10 38 -73 113 -46 55 -84 102 -84 105 0 3 38 50 84 105 62
73 81 103 74 113 -6 6 -13 12 -17 12 -3 0 -45 -47 -94 -105z"/>
<path d="M783 718 c-8 -10 10 -38 73 -113 46 -55 84 -102 84 -105 0 -3 -38
-50 -84 -105 -63 -75 -81 -103 -73 -113 5 -7 13 -11 18 -10 11 5 189 218 189
228 0 10 -178 223 -189 228 -5 1 -13 -3 -18 -10z"/>
</g>
</svg>
